<svg version="1.2" xmlns="http://www.w3.org/2000/svg" viewBox="0 0 733 749" width="733" height="749"><defs><linearGradient id="P" gradientUnits="userSpaceOnUse"/><linearGradient id="g1" x2="1" href="#P" gradientTransform="matrix(-525.128,-6.247,5.215,-438.393,1011.667,553.226)"><stop stop-color="#fbd1a2" stop-opacity="0"/><stop offset=".52" stop-color="#fbd1a2" stop-opacity="1"/><stop offset="1" stop-color="#ff3562" stop-opacity="1"/></linearGradient><linearGradient id="g2" x2="1" href="#P" gradientTransform="matrix(-523.099,-4.035,2.201,-285.297,697.946,212.031)"><stop stop-color="#61effd" stop-opacity="0"/><stop offset=".52" stop-color="#fbd1a2" stop-opacity="1"/><stop offset="1" stop-color="#ff3562" stop-opacity="1"/></linearGradient><linearGradient id="g3" x2="1" href="#P" gradientTransform="matrix(-381.363,-2.527,1.185,-178.874,396.227,411.239)"><stop stop-color="#61effd" stop-opacity="0"/><stop offset=".52" stop-color="#fbd1a2" stop-opacity="1"/><stop offset="1" stop-color="#ff3562" stop-opacity=".24"/></linearGradient><linearGradient id="g4" x2="1" href="#P" gradientTransform="matrix(-530.586,-12.998,8.877,-362.366,800.424,605.348)"><stop stop-color="#fbd1a2" stop-opacity="0"/><stop offset="1" stop-color="#ff3562" stop-opacity="1"/></linearGradient><linearGradient id="g5" x2="1" href="#P" gradientTransform="matrix(104.387,13.932,-8.201,61.447,331.295,441.862)"><stop stop-color="#fbd1a2" stop-opacity="1"/><stop offset="1" stop-color="#fff" stop-opacity=".48"/></linearGradient></defs><style>.a{fill:url(#g1)}.b{fill:url(#g2)}.c{fill:url(#g3)}.d{fill:url(#g4)}.e{fill:url(#g5)}.f{opacity:.24;fill:#ff3562}.g{fill:#fbd1a2}.h{fill:#ff7272}.i{fill:#93f4fe}.j{opacity:.24;fill:#61effd}.k{fill:#fff}.l{opacity:.32;fill:#fff}.m{opacity:.64;fill:#ff7272}.n{fill:#ff3562}.o{opacity:.64;fill:#2feafc}.p{opacity:.48;fill:#fff}</style><path fill-rule="evenodd" class="a" d="m492.1 242c77-78 269.8 143.5 482.1 192.7q212.4 49.2 219.8-30l-73.3 436.3q-188.9-219.4-271.9-214.6-83.1 4.9-122.9 70.5 55.4-282.5-74.5-210.1c-129.8 72.4-236.2-166.8-159.3-244.8z"/><path fill-rule="evenodd" class="b" d="m163.8 26c-67.2-84 245.1 60.5 457.4 109.7q212.4 49.2 258.4 14.2-317 163.1-399.9 137.2-82.8-25.9-106.8 110.8 55.4-282.5-74.5-210.1c-129.8 72.4-67.4-77.8-134.6-161.8z"/><path fill-rule="evenodd" class="c" d="m41.7 290.6c39.2 67.7 153.9 4.4 366.3 53.6q212.3 49.3 51-42.2-144 250-192.5 193.6-48.5-56.3-83.9 32 32.4-203.6-97.4-131.3c-129.9 72.4-82.6-173.4-43.5-105.7z"/><path fill-rule="evenodd" class="d" d="m912.1 829.5c-89.3 63.5-240.7-188.1-441.3-273.4q-200.5-85.4-221.6-8.6l147.8-225.5q73.8 147.8 275.3 77.6c201.6-70.2 2.9 70.2 185.5 98.4 182.6 28.2 143.7 268.1 54.3 331.5z"/><path fill-rule="evenodd" class="e" d="m457.5 449.2c-1.8-0.3-5-0.5-8.2-1.1-1.6-0.3-3.3-0.8-4.8-1.2q-0.5-0.2-1-0.4-0.5-0.1-1-0.4-0.5-0.2-1-0.4-0.4-0.2-0.9-0.5c1.5 0.5 2.8 1 4.1 1.4 1.3 0.3 2.5 0.7 3.7 0.9 1.3 0.2 2.5 0.5 3.9 0.6 1.3 0.2 2.8 0.3 4.4 0.4 0-0.4-1.7-0.2-2.4-0.4 5 0.5 9.5 0.3 13.7-0.1 4.2-0.4 8-1 11.7-1.7 7.3-1.6 13.9-3.5 21.3-6 1.1-0.6 0.5-0.8 0.9-1.1q0.9-0.3 1.9-0.7 0.9-0.3 1.8-0.7 1-0.3 1.9-0.7 0.9-0.4 1.9-0.8c-0.1 1 1.4 0.4 2.2 0.4 1.1-0.4-0.5-0.7 0.5-1-0.2-0.3-1.1 0.1-1.9 0.5 4.7-2.3 10.6-5.4 16.4-10 2.8-2.3 5.6-5.1 8.1-8.2 2.4-3.1 4.6-6.6 6.1-10.3-0.2-0.4 1-2.3 0.3-2.1 1.6-2.7 2.4-5.7 2.7-8.7 0.2-3.1 0-6.3-0.4-9.6-0.3 1-0.2-1.6-1.1-2.9-0.3-1-0.1-0.5 0.2-0.5-1.8-6-5.4-11.3-9.7-15.3-4.4-4.1-9.5-7-14.8-8.9-5.2-1.8-10.4-2.6-15.1-2.8-4.8-0.3-9.1 0.1-12.8 0.6-3.1-0.1-6.5 0.3-10.5 1.5-6.6 1.1-13.9 2.7-19.3 5.8-0.2-0.2 0.2-0.4 0.6-0.6-2.9 0.8-7.8 2.5-11.1 4.3-0.8 0.3 0.6 0.2 0.3 0.8-0.7 0.4-2.3 0.8-2.3 1.2-1.8 0.1 1.9-0.9 1.1-1.3-2.4 0.6-4.6 2.1-6.5 3.6-5.2 2.2-10.5 5.4-15.1 8.8-4.7 3.5-8.7 7.1-11.9 9.8-0.2 0.8 1.5-0.8 0.6 0.2-0.5 0.3-0.4 0.5-0.3 0.7-1.1 0.8-0.2-0.5-1.1-0.2-5 4.9-7.4 7.1-10.3 11.1 0.2-1.1-0.4 0.4-1 0.5-0.7 1.3-0.8 2.4-2.6 4.1-0.4-0.3 1.4-1.8 1.8-2.9-3.7 3.6-6.9 6.6-9.7 11.6 0.7 0.2 1.4-1.8 1.9-1.2-1.4 2.3-2.6 3.8-4.7 5.2-0.1-0.2 0.4-0.6 0.3-0.8 0.1 0.3-2.9 3-2.2 3.7-1.6 0.8-2.6 2.1-2.2 3.1-0.9 0.5-2.1 1.6-2.7 1.5-0.2 0.4 0.3 0.2-0.5 1.1 1.6-0.3 2.2-1.3 4.5-3.4 0.3-0.7-0.4-0.1-0.6-0.7 1.3-0.9 0.6 0.3 1.9-0.6 2.1-2.1 1.7-2.5 3.9-4.5 0.3 1.4-2.4 3.4-3.9 5-0.2 0.7-1.5 2.5-1.4 2.4-0.2 0.7-0.7 0.4-0.6-0.1-2.5 2.5-2.1 3.2-2 4.1-1 0.5-1.4 0.4-1.3-0.4-0.5 0.6-1.2 1.2-1.8 1.8-0.7 0.7-1.4 1.3-2.1 1.9-1.2 1.2-2.2 2.3-1.9 3.3-0.4 0.2-0.6-0.1-1.2 0.4 0 1.1-2.6 1.7-2.6 3.2-1.7 0.2-3.5 2.4-4.9 3.5l-0.5-0.8q-0.3 0.3-0.6 0.5-0.4 0.3-0.7 0.5-0.3 0.3-0.7 0.5-0.3 0.3-0.6 0.5c-1 0.7-1.9 1.4-2.9 2 0.8 0.1 1.7-0.5 2.7-1.2 0.9-0.8 1.7-1.6 2.8-2.1-2.1 2.1-5.1 4.2-8.1 5.9-3.1 1.6-6.5 3-10.5 4.2l3.4-1.4c1.1-0.4 2.2-0.8 3.2-1.3 1-0.5 2.1-1 3.1-1.5q0.8-0.5 1.6-0.9l1.6-1c-1.2 0-2 1.3-3 1.1-1.1 0.8-3.1 1.9-5.2 2.7-1.1 0.4-2.1 0.8-3.1 1-0.9 0.2-1.7 0.3-2.3 0.3-1.4 1.2-5.9 1.8-11.1 1.8-1.9-0.6 1.8-0.2 1.8-0.5-0.1-0.6-2.7 0.2-2.2-0.6 2.7 0.3 2.5 0.1 3.3 0.7 0.1-0.8 1.5-0.1 1.7-0.8 1.1-0.1 1 0.2 1.1 0.5 0.3-0.5 0.5-1.1 2.5-0.8-0.1-0.5-1.3-0.5-2.5-0.4-1.2 0.1-2.5 0.4-2.7 0.6-0.7-0.1-1.4-0.2-2.2-0.3-0.7-0.1-1.5-0.2-2.3-0.3-1.6-0.4-3.1-0.6-4.7-0.9-1.2-0.5-1-0.9-0.8-1.3-0.1 0.1-0.5 0-0.9-0.2q-0.2-0.1-0.4-0.3-0.1-0.1-0.3-0.2-0.2-0.1-0.3-0.2-0.2-0.2-0.3-0.3c-0.9-0.8-1.4-1.5-0.6-1.4-0.8-0.6-1.4-1.2-1.9-1.7-0.5-0.5-1-0.8-1.3-1.2-0.8-0.9-1.5-1.6-2.3-3 1.5 1.1-0.2-0.5 1.4 0.3 0-0.6-0.9-2.1-1.4-3.2 0.5-0.8 1.7 1 2.3 1-1.3-1.8 1.1 0.1-1.1-2.4 0.8 0.4 1.9 1.5 0.8-0.5 0.3-0.6 1.4 1.3 1.8 1.1 0.4-0.4-0.1-1.5 0.4-1.9 0.2-0.4 0.7 0.4 0.9-0.2l1.2 0.9c0.3 0.3 0.8 0.5 1.2 0.7 0.4 0.2 0.8 0.5 1.2 0.7l1.4 0.5c1.8 0.6 3.6 1 5.5 0.9 0.9 0.1 1.9 0 2.9-0.1 0.4 0 0.9-0.1 1.4-0.2q0.2 0 0.4 0 0.1-0.1 0.3-0.1 0.2 0 0.4-0.1 0.1 0 0.3 0c1.9-0.4 3.8-1 5.7-1.7q1.1-0.4 2.2-0.9 1.1-0.4 2.1-1 1-0.5 2-1.1 1.1-0.6 2-1.3l1-0.7 1-0.7 2-1.5c1.3-1.1 2.6-2.2 4-3.3 5.1-4.4 10.1-9.4 15-14.7 5.9-6.3 12.8-14 19.6-20.8 5.8-5.7 11.3-10.9 17.1-15.3q2-1.6 4.2-3.1 2.1-1.6 4.3-3 2.2-1.5 4.5-2.8 2.2-1.4 4.5-2.7c6.1-3.4 12.7-6.6 20.2-9.4 7.5-2.7 16-5.2 26.1-6.9 8.1-1.3 17.5-2.4 27.7-1q3.8 0.5 7.7 1.5c1.2 0.3 2.5 0.8 3.8 1.2 1.3 0.4 2.5 0.9 3.8 1.5q0.9 0.4 1.8 0.8 0.9 0.5 1.8 0.9 0.9 0.5 1.7 1 0.9 0.6 1.7 1.1 0.9 0.5 1.7 1.1 0.8 0.6 1.6 1.2 0.7 0.6 1.5 1.2 0.7 0.7 1.5 1.4c1.7 1.6 2.4 2.5 2.6 2.7 0.2 0.2-0.3-0.2-0.9-0.8-0.7-0.7-1.7-1.5-2.5-2.3l-2.1-1.6c-4.2-3.1-8.5-5.5-12.9-7.1-4.5-1.7-8.8-2.7-13.1-3.3-8.6-1.2-16.9-0.7-25.3 0.7 2 0 5.8-0.4 8.5-0.8q-1.4 0.2-2.8 0.4-1.4 0.2-2.8 0.5-1.3 0.2-2.7 0.4-1.4 0.3-2.8 0.5c-1.8 0.4-3.7 0.8-5.6 1.2-1.9 0.4-3.8 0.9-5.7 1.4-7.6 1.9-15.1 4.4-21.6 7.3 0.3-0.7 1.2-0.7 2.8-1.5-5.3 1.5-8.9 3.9-14.7 6.7 0.9-0.1 1.9-0.6 3-1.2 1.1-0.6 2.4-1.5 4.2-2 0.5-0.3 1.3-0.7 1.5-0.5l-1.5 0.6c-5.8 3.1-11.7 6.5-17.1 10.1-5.4 3.7-10.5 7.6-14.7 11.7 3.3-2.8 7.1-5.5 11-8.3 4-2.8 8.2-5.5 12.4-8.4-0.1 0.2-0.3 0.5 0.2 0.3 7.7-4.4 15.5-7.8 23.1-10.5-10 4-20.2 8.7-29.8 15.3 5-2.6 10.1-6.2 16.8-8.9 0.8-0.2 0.5-0.5 0.5-0.8 4.8-1.5 9.6-3.5 14.3-5.1q1.6-0.5 3.2-1 1.7-0.5 3.4-0.9 1.6-0.5 3.3-0.9 1.7-0.4 3.4-0.8c4.4-1 8.8-1.8 13.3-2.4 9-1.1 18.6-1.3 28.5 1.2q3.7 1 7.4 2.5 1 0.4 1.9 0.8 0.9 0.5 1.8 0.9 0.9 0.5 1.7 1 0.9 0.5 1.8 1.1c4.5 2.9 8.8 6.7 12.3 11.5q0.6 0.9 1.3 1.9 0.6 1 1.1 2 0.6 1 1.1 2 0.4 1.1 0.9 2.1c1.1 2.9 2 6.1 2.3 9.3 0.4 3.2 0.4 6.5-0.1 9.6q-0.2 1.2-0.4 2.4-0.2 1.2-0.5 2.3-0.3 1.2-0.6 2.3-0.4 1.2-0.8 2.3c-0.8 2-1.6 3.8-2.9 6.3q-0.1 0.2-0.2 0.4-0.1 0.1-0.2 0.3-0.2 0.2-0.3 0.4-0.1 0.2-0.2 0.3-0.5 0.7-1 1.4c-0.7 1-1.5 1.8-2.1 2.7-1.7 2.3-3.4 4.7-5.4 6.7-2 2-4 3.6-6 4.4-1.2 1.1-4.2 2.9-2.9 1.9 2.7-2.1 5.2-4.2 7.5-6.3 2.4-2.2 4.5-4.4 6.1-6.6 3.4-4.7 6.1-9.9 7.7-15.6 0.8-2.8 1.3-5.7 1.5-8.7 0.2-3 0-6.1-0.6-9.1-1.1-6-3.8-11.5-7.3-15.9q-0.6-0.8-1.3-1.5-0.7-0.8-1.4-1.6-0.7-0.7-1.5-1.4-0.7-0.7-1.5-1.4-0.8-0.6-1.5-1.2-0.8-0.6-1.6-1.2-0.8-0.5-1.7-1.1-0.8-0.5-1.6-1c3.6 2.5 7.2 5.4 10.2 8.8 1.5 1.7 2.9 3.7 4.2 5.6 1.2 2.1 2.3 4.2 3.2 6.4 1.7 4.5 2.4 9.4 2.3 13.9q-0.1 1.7-0.3 3.3-0.2 1.6-0.5 3.2-0.3 1.5-0.8 3.1-0.5 1.6-1.1 3.1c-1.3 3.5-3.3 7.2-5.6 10.4-2.2 3.3-4.9 6.3-7.4 8.4-5.7 4.8-11.9 8.5-18.2 11.5-6.3 3-12.7 5.3-19 7.3-6.3 2-12.9 3.7-19.8 4.7-6.9 1-14.1 1.3-21.3 0.1 1.7-0.3 3-0.2 3.8-0.3zm-61-33.1c-0.9 0.5-1.5 2.5-2.8 2.4 1.2-1.3 1.7-1.8 1.6-2.6 0.5-0.1 0.8-0.1 1.6-1-0.1 0.4-0.5 1-0.3 1.3-0.3 0.3-0.3 0-0.1-0.1zm8.3-8.8c-1.4 0.1 1.3-1.5 2-2.6-0.1 0.3-0.5 0.7-0.2 0.9-0.6 0.4-2.1 1.1-1.8 1.7zm114.9-55.3c-4.3-0.5-8.9-2.3-13.4-2.5 1-0.2 3.4 0.1 6 0.6 2.6 0.6 5.4 1.5 7.4 1.9zm-163.3 98.7c-0.6 0.1-1.1 0.2-1-0.1-2.6 0.7-3.2 1.5-5.7 2 0.2 0.4 0.6 0.7 1.6 0.6 0.7-0.6 2-1.7 3.5-1.3 0-0.4 0.1-0.7 0.7-1 0 0.2 0.8 0 0.9-0.2zm-7.1 2c-2.1 0.2-1.2 1.4 0.1 0.7 0 0.2 0.2 0.4 1 0.2 0-0.5-1.2-0.3-1.1-0.9zm19.4-8.5c0.8-0.2 3-1.8 2.7-2.4-0.3 0.4-1 0.8-1.6 1.3-0.6 0.4-1.2 0.8-1.1 1.1zm4.1-3.2c1.4-1.1 4.3-3.4 3.3-3.5-1 1.2-2.9 2.5-3.3 3.5zm-4.8 1.3c-0.2 0.6-0.7 1.2-1.5 1.8q-0.6 0.5-1.3 0.9c-0.4 0.3-1 0.6-1.5 0.9-1 0.7-2 1.2-2.7 1.6-0.7 0.5-1.1 0.9-1 1.3 1.7-1 1.4-0.9 3.3-1.4-0.8-0.9 1.3-1 1.5-1.8 0.6-0.3 0.5 0.1 0.9-0.1 1-0.9 0.7-1.2 2.6-1.9 0-0.5 0.6-0.9 1.3-1.3 0.7-0.5 1.5-1 2-1.6l-0.2-0.3c-0.2 0.1-0.4 0.2-0.4 0-0.8 0.8-0.8 1.4-1.9 2.1-0.2-0.3-1.1 0.4-1.1-0.2zm14.5-11.7c-0.4-0.4-1.1 0-1.6-0.1q-0.7 0.7-1.5 1.2c0.3 0.5-0.7 1.3-1.3 2-0.4-0.3-1.1-0.1-0.7-0.8-0.3 0.9-0.9 2.2 0.1 1.9-0.8 0.2-0.6 0.7-1 1.2 0.5-0.1 3.6-2.8 1.3-1.4 2.3-1.4 2.8-2.7 4.7-4zm123.7 7.2c-0.1 0.7 2.9-0.7 3-1-1.4 0.4-1.2 0.3-3 1zm-81.4-62.3l-2.3 1.4c0.2 0 1.6-0.8 2.9-1.6 1.2-0.8 2.5-1.7 2.6-2-1.8 1-2.6 1.6-3.2 2.2zm26.8-17c2.6-0.2 8.4-2.6 10.9-3.7q-0.7 0.2-1.4 0.4-0.7 0.2-1.3 0.4-0.7 0.2-1.4 0.5-0.7 0.2-1.3 0.5l-2.6 0.9q-1.3 0.5-2.9 1zm24.3-7.2c-0.9 0.1-4.2 0.5-5.4 1.5 0.5-0.2 1.3-0.4 2.3-0.7l2.8-0.6c1.7-0.4 2.6-0.6 0.3-0.2zm-78.4 64.8c-0.1-0.3 0.3-0.7 0.1-0.9 0.7-0.1 0.8-0.3 1.5-1.2 0.3 0.6-1 1-1.6 2.1zm-15.3 16.1c0.5-0.5 1.2 0.3 0.2 0.8 0-0.2 0.2-0.4 0.1-0.6-1.6 0.9 0 0.9-1.2 1.7 0.3-1.2-0.8 0.6-1.9 1.3 0.8-1.3 2-2.3 2.8-3.2zm15.6-18.9c0.7-0.2 1-1.2 2.2-2.1-0.4 1.3-1.6 2.2-1.7 3.1-0.9 0.5-0.5-0.7-0.5-1zm4.9-4.5c0.2-0.2 0.3-0.2 0.4-0.1 0.2-0.6-0.3-1.4 0.8-1.8 0.3 0.4-1 1.3-0.2 1.4-0.4 0.6-0.8 0.8-1 0.5zm-0.9 1.2c-0.7 0.3 0.4-1.9 1.1-2.1 0.3 0.5-0.9 1.5-1.1 2.1zm3.7-5.1l0.4 0.4c-0.5 0.4-1.2 1.4-1.3 0.8 0.5-0.5 0.4-0.7 0.9-1.2zm6.3-6c0.3-0.2 0.4 0.1 0.8-0.2-0.1 0.6-1.6 1.5-1.6 2.1-0.9 0.3 0.2-1.3 1-1.6 0 0-0.2-0.3-0.2-0.3zm-1.7 2c-0.5 0.3-2.5 2.2-2.2 2.8-0.7 0.1-0.8 0.3-1.5 1.1-0.5-0.2 0.3-0.7 0.1-1 1.7-0.9 2.5-3.4 3.6-2.9zm19.1-16.6c1-0.9 0.8 0.5 1.2 0.6-0.9 0.6-1.5-0.2-1.2-0.6zm11.3-7.8c-0.3 0.5-1.1 1-2.1 1.5 0-0.5 1.6-1.5 2.1-1.5zm-22.8 14.8c0 0.3-0.1 0.5 0.1 0.7-1.1-0.2-3.1 3.9-3.4 2.1 0.7-0.1 1.2-0.7 1.7-1.4 0.5-0.6 1-1.3 1.6-1.4zm26.6-16.9c-0.5 0.7-2.3 1.6-3.5 2.7 0.4-0.5 0.9-1 0.9-1.5 1.4-0.4 1.8-1.2 2.6-1.2zm-23.7 14.2c0.3-0.1 0.6-0.2 1-0.5 0.5 0.2-0.3 0.7-0.1 1-0.6 0.2-1.2 0-0.9-0.5zm-1.9 1.7c-0.2-0.3 1-0.9 1.4-1.3 0 0.4-0.4 0.8-0.1 1.2-1 0.6-0.9-0.1-1.3 0.1zm47.5-25.1c-0.3 0.8-3 1.1-4 1.8 0.5-1.1 2.1-0.9 4-1.8zm0.8-2.6q-0.3 0.4-0.1 0.8-1.1 0.3-2.2 0.6c0.1-0.9 1.4-0.6 2.3-1.4zm17.6 82c3.2-1.4 9.4-2.4 16.2-5-3.1 1.5-11 3.7-16.2 5zm16.4-0.8c2-1 3.2-1.4 3.4-1.3 0.1 0-0.9 0.6-3.4 1.3zm12.5-4.9c1.7-1.1 2.9-1.7 3.1-1.7 0.2 0-0.6 0.6-3.1 1.7zm-38.4-85.7c0.1-0.8 3.5-0.8 4.9-1.2 1 0.1-0.1 0.2-1.5 0.4-1.4 0.3-3.1 0.6-3.4 0.8zm23.5-4.2c-0.5 0.2-1.6 0.2-2.8 0.2-1.1-0.1-2.3-0.1-2.7 0.2-0.5-0.2 0.7-0.4 2.2-0.5 1.4 0 3 0 3.3 0.1zm2.6-0.3c0.3 0 0.4 0.1 0.4 0.2 6.4 0.1 0 0.9-0.4-0.2zm37.7 15.1c-1.9-1.5-3.1-2.6-3.2-2.8-0.1-0.2 0.9 0.4 3.2 2.8zm-6.5-5.2c-0.7-0.5-1.6-1-2.6-1.6-1.1-0.5-2.2-1.1-3.3-1.6-2.2-1.1-4.3-2-5.5-2.9 2 0.8 4.3 1.8 6.4 2.9 2 1.1 3.9 2.3 5 3.2zm8.4 63.6c-1.1 1.6-0.8 1.3 0 0.3 0.8-0.9 2-2.6 2.7-3.6 1.9-2.8 3.6-6.3 3.7-7.4-0.4 0.8-0.8 1.7-1.3 2.6-0.5 0.9-1 1.9-1.6 2.9q-0.4 0.7-0.8 1.3-0.5 0.7-0.9 1.4-0.4 0.6-0.9 1.3-0.4 0.6-0.9 1.2z"/><path fill-rule="evenodd" class="f" d="m113.7 9l1.8 0.8 0.5 1.8-0.6 1.7-1.7 0.7-1.6-0.8-1.1-1.6 0.8-1.8z"/><path fill-rule="evenodd" class="g" d="m43.3 43l2.9 1.3 0.8 2.9-0.9 2.6-2.8 1.2-2.6-1.3-1.7-2.5 1.3-3z"/><path fill-rule="evenodd" class="h" d="m88.3 38l2.9 1.3 0.8 2.9-0.9 2.6-2.8 1.2-2.6-1.3-1.7-2.5 1.3-3z"/><path fill-rule="evenodd" class="g" d="m108.7 72l1.8 0.8 0.5 1.8-0.6 1.7-1.7 0.7-1.6-0.8-1.1-1.6 0.8-1.8zm-44-12l1.8 0.8 0.5 1.8-0.6 1.6-1.7 0.8-1.6-0.9-1.1-1.5 0.8-1.9z"/><path fill-rule="evenodd" class="i" d="m64.7 4l1.8 0.8 0.5 1.8-0.6 1.7-1.7 0.7-1.6-0.8-1.1-1.6 0.8-1.8z"/><path fill-rule="evenodd" class="j" d="m121.7 43l1.8 0.8 0.5 1.8-0.6 1.7-1.7 0.7-1.6-0.8-1.1-1.6 0.8-1.8z"/><path fill-rule="evenodd" class="k" d="m170.5 63.5l-0.5 1.1 0.6 0.9 1 0.5 1.1-0.4 0.3-1-0.3-1.1-1.1-0.5zm444.3 541.3l-0.8 1.8 1.1 1.6 1.6 0.8 1.8-0.7 0.5-1.7-0.5-1.7-1.8-0.9z"/><path fill-rule="evenodd" class="l" d="m690.7 546l1.8 0.8 0.5 1.8-0.6 1.7-1.7 0.7-1.6-0.8-1.1-1.6 0.8-1.8z"/><path fill-rule="evenodd" class="k" d="m633.7 585l1.8 0.8 0.5 1.8-0.6 1.7-1.7 0.7-1.6-0.8-1.1-1.6 0.8-1.8z"/><path fill-rule="evenodd" class="m" d="m606.3 311l2.9 1.3 0.8 2.9-0.9 2.6-2.8 1.2-2.6-1.3-1.7-2.5 1.3-3z"/><path fill-rule="evenodd" class="g" d="m639.7 319l1.8 0.8 0.5 1.8-0.6 1.7-1.7 0.7-1.6-0.8-1.1-1.6 0.8-1.8zm-28 18l1.8 0.8 0.5 1.8-0.6 1.6-1.7 0.8-1.6-0.9-1.1-1.5 0.8-1.9zm-16.1 268l1.1 0.5 0.3 1.1-0.3 1-1.1 0.4-0.9-0.5-0.7-0.9 0.5-1.1z"/><path fill-rule="evenodd" class="n" d="m427.4 523.1c0.2-0.4 0.5-0.7 0.7-1.1 0.1-0.4 0.3-0.8 0.4-1.2 0.1-0.4-0.3-1-0.3-1.4 0.1-0.5-0.3-1-0.3-1.5 0.1-0.4 0.2-0.8 0.3-1.3 0-0.4 0.1-0.8 0.1-1.3 0-0.4 0.6-0.6 0.6-1.1 0-0.4-0.6-1.2-0.6-1.6 0-0.4 0.4-0.7 0.5-1.2q0.1-0.7 0.3-1.4c0.2-0.4 0.7-0.7 0.9-1.2 0.2-0.4 0.3-0.9 0.4-1.3 0.2-0.5 0.2-1 0.3-1.5 0.2-0.4 0.6-0.7 0.8-1.2 0.2-0.4 0.1-1 0.3-1.4 0.2-0.4 0.3-0.9 0.5-1.3 0.3-0.4 1.2-0.5 1.5-0.9 0.3-0.3-0.1-1 0.3-1.3 0.3-0.3 1.3-0.2 1.7-0.5 0.3-0.3 0-0.9 0.4-1.2 0.4-0.3 1-0.4 1.4-0.7 0.4-0.3 1-0.4 1.4-0.7 0.1-0.1 0.7 0.3 0.6 0.4-0.3 0.3-0.3 0.9-0.5 1.3-0.2 0.4-1 0.5-1.2 0.9-0.2 0.4 0.2 1.2 0.1 1.6-0.1 0.5-0.4 0.8-0.5 1.3-0.1 0.5 0 1.1-0.1 1.5-0.1 0.5 0 1-0.1 1.5-0.1 0.5-0.4 0.8-0.6 1.3-0.1 0.4-0.4 0.8-0.5 1.2-0.2 0.5 0 1.1-0.1 1.5-0.2 0.4-0.4 0.9-0.6 1.3-0.3 0.4-0.5 0.8-0.8 1.1-0.4 0.4-1 0.6-1.5 0.9-0.5 0.3-0.8 0.7-1.1 1-0.3 0.4-1 0.6-1.2 1-0.2 0.5-0.3 0.9-0.4 1.4-0.1 0.5-0.1 1-0.2 1.4-0.1 0.5-0.2 0.9-0.3 1.3-0.1 0.4-0.2 0.8-0.3 1.2-0.1 0.4-0.2 0.8-0.4 1.2-0.2 0.4-0.6 0.7-0.8 1-0.3 0.4-0.4 0.8-0.7 1.1-0.1 0-0.4-0.1-0.4-0.1z"/><path fill-rule="evenodd" class="o" d="m428.3 464.5c0.3 0 0.7 0.1 1 0 0.4-0.1 0.7-0.1 1-0.3 0.4-0.1 0.5-0.8 0.8-1 0.3-0.2 0.5-0.8 0.8-1 0.3-0.2 0.6-0.3 0.9-0.6 0.2-0.2 0.6-0.4 0.8-0.6 0.3-0.3 0.7 0 1-0.2 0.3-0.3 0.3-1.3 0.6-1.5 0.2-0.2 0.6-0.1 0.9-0.4q0.1-0.1 0.2-0.1 0.1-0.1 0.2-0.2 0.2-0.1 0.3-0.2 0.1 0 0.2-0.1c0.4-0.2 0.8 0 1.2-0.1 0.3-0.2 0.6-0.4 1-0.6 0.3-0.2 0.5-0.6 0.8-0.8 0.4-0.2 0.8-0.1 1.1-0.2 0.4-0.2 0.5-0.7 0.9-0.9 0.3-0.1 0.5-0.4 0.9-0.5 0.3-0.1 1 0.3 1.4 0.3 0.3-0.1 0.3-0.8 0.7-0.8 0.4 0 1.1 0.6 1.5 0.7 0.4 0 0.4-0.7 0.8-0.7 0.4 0 0.9 0.3 1.3 0.3 0.4 0 1 0.2 1.4 0.2 0.1 0 0.4 0.6 0.3 0.6-0.4 0.1-0.5 0.6-0.9 0.8-0.3 0.1-1-0.2-1.3 0-0.3 0.3-0.3 1-0.6 1.3-0.3 0.3-0.6 0.4-0.9 0.7-0.3 0.3-0.5 0.8-0.8 1.1-0.3 0.3-0.5 0.7-0.8 1-0.3 0.3-0.7 0.3-1 0.6-0.3 0.2-0.8 0.3-1.1 0.5-0.3 0.2-0.5 0.8-0.9 1-0.3 0.1-0.7 0.3-1.1 0.4-0.4 0.1-0.8 0.3-1.2 0.2-0.4 0-1-0.3-1.5-0.5-0.5-0.2-0.9-0.1-1.3-0.1-0.4 0-1-0.4-1.3-0.3-0.4 0.1-0.7 0.4-1.1 0.6-0.3 0.1-0.6 0.5-1 0.7q-0.5 0.3-0.9 0.5c-0.4 0.1-0.7 0.3-1 0.4-0.3 0.1-0.7 0.3-1 0.3-0.4 0.1-0.8 0-1.1-0.1-0.4 0-0.7 0.1-1.1 0-0.1 0-0.1-0.4-0.1-0.4z"/><path fill-rule="evenodd" class="p" d="m510.2 452.6c0.5 0.2 1 0.6 1.5 0.7 0.5 0.2 1 0.4 1.6 0.5 0.5 0.2 1.2-0.2 1.8-0.1 0.5 0.1 1.2-0.3 1.8-0.2 0.6 0.1 1.1 0.3 1.6 0.3 0.6 0 1.1 0.2 1.7 0.2 0.6 0 0.9 0.6 1.5 0.7 0.6 0 1.4-0.6 2-0.6 0.5 0.1 0.9 0.5 1.5 0.5q0.9 0.2 1.8 0.4c0.6 0.2 1.1 0.8 1.7 1 0.6 0.2 1.2 0.2 1.8 0.4 0.6 0.2 1.3 0.2 1.9 0.3 0.5 0.2 1 0.7 1.6 0.8 0.6 0.2 1.3 0.1 1.9 0.3 0.5 0.2 1.2 0.3 1.7 0.5 0.6 0.3 0.9 1.2 1.4 1.5 0.5 0.3 1.2-0.1 1.7 0.3 0.4 0.3 0.6 1.3 1.1 1.7 0.5 0.4 1.2 0 1.6 0.4 0.5 0.4 0.8 1.1 1.3 1.4 0.4 0.4 0.8 1.1 1.2 1.4 0.2 0.1-0.1 0.8-0.2 0.7-0.6-0.3-1.2-0.2-1.8-0.5-0.6-0.2-0.9-1-1.5-1.1-0.6-0.2-1.4 0.2-2 0.1-0.6-0.1-1.2-0.4-1.8-0.5-0.6-0.1-1.3 0.1-1.9 0-0.6-0.1-1.3-0.1-1.9-0.1-0.6-0.1-1.2-0.5-1.8-0.6-0.6-0.1-1.1-0.5-1.7-0.6-0.6-0.2-1.3 0.1-1.9-0.1-0.6-0.2-1.2-0.4-1.8-0.6-0.6-0.3-1.1-0.6-1.6-0.9-0.6-0.4-1-1.1-1.4-1.6-0.5-0.6-1.1-0.8-1.6-1.2-0.5-0.3-0.9-1.1-1.5-1.3-0.6-0.2-1.2-0.3-1.8-0.5-0.6-0.1-1.3-0.1-1.9-0.2-0.5-0.1-1.1-0.3-1.6-0.4-0.5-0.1-1.1-0.2-1.6-0.4-0.5-0.2-1.1-0.3-1.6-0.5-0.5-0.3-1-0.7-1.4-1-0.5-0.2-1-0.4-1.5-0.8 0 0 0.1-0.4 0.1-0.3z"/><path fill-rule="evenodd" class="k" d="m542.1 562.3c-0.2-0.4-0.3-1-0.6-1.4-0.4-0.5-0.6-0.9-1-1.3-0.3-0.5-1.1-0.6-1.5-1-0.3-0.4-1.1-0.5-1.5-0.8-0.4-0.4-0.7-0.8-1.2-1.2-0.4-0.3-0.7-0.7-1.2-1-0.4-0.4-0.4-1.1-0.8-1.4-0.5-0.3-1.5-0.2-1.9-0.5-0.5-0.4-0.6-0.9-1-1.3q-0.2-0.1-0.3-0.3-0.2-0.1-0.4-0.3-0.1-0.1-0.3-0.3-0.1-0.1-0.3-0.3c-0.4-0.4-0.5-1.1-0.9-1.6-0.3-0.5-0.8-0.8-1.2-1.3-0.4-0.4-1-0.7-1.4-1.1-0.4-0.4-0.6-1.1-1-1.5-0.4-0.4-1.1-0.6-1.4-1-0.4-0.5-0.9-0.8-1.3-1.3-0.3-0.5-0.2-1.4-0.5-1.9-0.3-0.4-1.1-0.4-1.3-0.9-0.2-0.5 0.1-1.5-0.2-2-0.2-0.6-1-0.5-1.2-1.1-0.2-0.5-0.2-1.2-0.5-1.7-0.2-0.5-0.2-1.3-0.5-1.8-0.1-0.1 0.4-0.6 0.5-0.5 0.4 0.5 1 0.7 1.4 1.1 0.4 0.5 0.4 1.3 0.9 1.7 0.4 0.4 1.3 0.4 1.8 0.8 0.5 0.3 0.8 0.8 1.3 1.2 0.5 0.3 1.2 0.5 1.7 0.9 0.5 0.3 1.1 0.6 1.6 1 0.5 0.3 0.8 0.9 1.2 1.3 0.5 0.4 0.8 0.9 1.2 1.3 0.5 0.4 1.2 0.6 1.6 1.1 0.4 0.4 0.9 0.9 1.2 1.4 0.4 0.5 0.7 1 1 1.6 0.2 0.6 0.2 1.4 0.3 2.1 0.1 0.7 0.4 1.2 0.6 1.8 0.3 0.5 0.2 1.4 0.6 1.8 0.3 0.5 0.8 1 1.2 1.4 0.4 0.4 0.9 0.8 1.4 1.2q0.5 0.6 1 1.3c0.4 0.4 0.8 0.8 1.1 1.2 0.3 0.5 0.7 0.9 0.9 1.3 0.3 0.5 0.4 1.1 0.6 1.6 0.2 0.5 0.5 1 0.7 1.5 0 0.1-0.3 0.3-0.4 0.2zm5.7-30.7c0.1-0.1 0.3 0 0.4-0.1 0-0.1 0.2-0.1 0.2-0.2 0-0.1-0.2-0.6-0.2-0.8 0-0.1-0.3-0.7-0.3-0.8 0-0.2 0.1-0.3 0.1-0.5 0-0.1 0.1-0.3 0-0.5 0-0.1 0.4 0.1 0.4-0.1 0-0.2-0.5-0.9-0.5-1.1 0-0.2 0.2-0.1 0.2-0.2q0-0.3 0.2-0.5c0-0.1 0.4 0.1 0.5 0 0.1-0.1 0.1-0.3 0.2-0.3 0-0.1 0-0.4 0-0.6 0.1-0.1 0.4 0.1 0.4 0 0.1-0.1 0-0.5 0.1-0.6 0.1 0 0.1-0.3 0.2-0.3 0.2 0 0.7 0.5 0.9 0.5 0.2 0-0.1-0.5 0.1-0.5 0.1 0.1 0.8 0.7 1 0.8 0.2 0 0-0.5 0.2-0.4 0.2 0.1 0.6 0.4 0.8 0.5 0.2 0.1 0.7 0.4 0.8 0.5 0.1 0 0.5 0.5 0.5 0.5-0.2 0-0.1 0.3-0.2 0.4-0.1 0.1-0.6-0.3-0.6-0.2-0.1 0.1 0.2 0.7 0.2 0.8-0.1 0.2-0.2 0.2-0.2 0.4 0 0.2 0.1 0.5 0.1 0.7 0 0.2 0 0.5 0 0.6 0 0.2-0.2 0.2-0.2 0.3-0.1 0.2-0.2 0.2-0.3 0.3-0.1 0.1 0.1 0.6 0 0.7 0 0-0.1 0.2-0.2 0.2-0.2 0-0.3 0.1-0.5 0-0.2 0-0.7-0.3-1-0.5-0.3-0.2-0.4-0.2-0.6-0.2-0.2 0-0.7-0.4-0.8-0.3-0.1 0.1-0.1 0.2-0.2 0.3 0 0.2 0 0.5 0 0.6 0 0.1-0.1 0.2-0.2 0.4 0 0.1 0 0.2-0.1 0.3-0.1 0.1-0.1 0.2-0.2 0.3-0.2 0-0.4-0.1-0.6-0.1-0.1 0-0.2 0-0.4 0q0-0.1-0.1-0.1 0 0 0-0.1-0.1 0-0.1 0 0-0.1 0-0.1z"/></svg>